# xmcd
# Track frame offsets:
# 150
# 13855
# 27810
# 39732
# 52802
# 68975
# 83305
# 99977
#
# Disc length: 1530 seconds
# Revision: 0
# Processed by: cddbd v1.5.1PL0 Copyright (c) Steve Scherf et al.
# Submitted via: VisiTrax 2.9.10.220 - For more info visit www.synapsa.com
#
DISCID=5405f808
DTITLE=Tracy Parker - Out of the Blue
DYEAR=1993
DGENRE=Country
TTITLE0=In The Back Of Your Mind
TTITLE1=I Walk Alone
TTITLE2=Let Me Go
TTITLE3=Beggin' To You
TTITLE4=On The Other Side
TTITLE5=With All The Heart I Have
TTITLE6=Love On The Wing
TTITLE7=Come Back To Me
EXTD=
EXTT0=
EXTT1=
EXTT2=
EXTT3=
EXTT4=
EXTT5=
EXTT6=
EXTT7=
PLAYORDER=
